<svg width="48" height="48" viewBox="0 0 48 48" fill="none" xmlns="http://www.w3.org/2000/svg">
<circle cx="24" cy="24" r="24" fill="white"/>
<path d="M33.3333 36V33.3333C33.3333 31.9188 32.7714 30.5623 31.7712 29.5621C30.771 28.5619 29.4145 28 28 28H20C18.5855 28 17.229 28.5619 16.2288 29.5621C15.2286 30.5623 14.6667 31.9188 14.6667 33.3333V36M29.3333 17.3333C29.3333 20.2789 26.9455 22.6667 24 22.6667C21.0545 22.6667 18.6667 20.2789 18.6667 17.3333C18.6667 14.3878 21.0545 12 24 12C26.9455 12 29.3333 14.3878 29.3333 17.3333Z" stroke="#1E5D96" stroke-width="2" stroke-linecap="round" stroke-linejoin="round"/>
</svg>
