<svg width="304" height="41" viewBox="0 0 304 41" fill="none" xmlns="http://www.w3.org/2000/svg">
<path d="M16.1333 24.7333L16 24.8667L15.8533 24.7333C9.52 18.9867 5.33333 15.1867 5.33333 11.3333C5.33333 8.66667 7.33333 6.66667 10 6.66667C12.0533 6.66667 14.0533 8 14.76 9.81333H17.24C17.9467 8 19.9467 6.66667 22 6.66667C24.6667 6.66667 26.6667 8.66667 26.6667 11.3333C26.6667 15.1867 22.48 18.9867 16.1333 24.7333ZM22 4C19.68 4 17.4533 5.08 16 6.77333C14.5467 5.08 12.32 4 10 4C5.89333 4 2.66666 7.21333 2.66666 11.3333C2.66666 16.36 7.2 20.48 14.0667 26.7067L16 28.4667L17.9333 26.7067C24.8 20.48 29.3333 16.36 29.3333 11.3333C29.3333 7.21333 26.1067 4 22 4Z" fill="white"/>
<path d="M49.517 29V11.5455H56.4034C57.7273 11.5455 58.8551 11.7983 59.7869 12.304C60.7188 12.804 61.429 13.5 61.9176 14.392C62.4119 15.2784 62.6591 16.3011 62.6591 17.4602C62.6591 18.6193 62.4091 19.642 61.9091 20.5284C61.4091 21.4148 60.6847 22.1051 59.7358 22.5994C58.7926 23.0937 57.6506 23.3409 56.3097 23.3409H51.9205V20.3835H55.7131C56.4233 20.3835 57.0085 20.2614 57.4688 20.017C57.9347 19.767 58.2813 19.4233 58.5085 18.9858C58.7415 18.5426 58.858 18.0341 58.858 17.4602C58.858 16.8807 58.7415 16.375 58.5085 15.9432C58.2813 15.5057 57.9347 15.1676 57.4688 14.929C57.0028 14.6847 56.4119 14.5625 55.696 14.5625H53.2074V29H49.517ZM70.6918 29.2557C69.3679 29.2557 68.223 28.9744 67.2571 28.4119C66.2969 27.8437 65.5554 27.054 65.0327 26.0426C64.5099 25.0256 64.2486 23.8466 64.2486 22.5057C64.2486 21.1534 64.5099 19.9716 65.0327 18.9602C65.5554 17.9432 66.2969 17.1534 67.2571 16.5909C68.223 16.0227 69.3679 15.7386 70.6918 15.7386C72.0156 15.7386 73.1577 16.0227 74.1179 16.5909C75.0838 17.1534 75.8281 17.9432 76.3509 18.9602C76.8736 19.9716 77.1349 21.1534 77.1349 22.5057C77.1349 23.8466 76.8736 25.0256 76.3509 26.0426C75.8281 27.054 75.0838 27.8437 74.1179 28.4119C73.1577 28.9744 72.0156 29.2557 70.6918 29.2557ZM70.7088 26.4432C71.3111 26.4432 71.8139 26.2727 72.2173 25.9318C72.6207 25.5852 72.9247 25.1136 73.1293 24.517C73.3395 23.9205 73.4446 23.2415 73.4446 22.4801C73.4446 21.7188 73.3395 21.0398 73.1293 20.4432C72.9247 19.8466 72.6207 19.375 72.2173 19.0284C71.8139 18.6818 71.3111 18.5085 70.7088 18.5085C70.1009 18.5085 69.5895 18.6818 69.1747 19.0284C68.7656 19.375 68.456 19.8466 68.2457 20.4432C68.0412 21.0398 67.9389 21.7188 67.9389 22.4801C67.9389 23.2415 68.0412 23.9205 68.2457 24.517C68.456 25.1136 68.7656 25.5852 69.1747 25.9318C69.5895 26.2727 70.1009 26.4432 70.7088 26.4432ZM79.4957 29V15.9091H83.0156V18.1932H83.152C83.3906 17.3807 83.7912 16.767 84.3537 16.3523C84.9162 15.9318 85.5639 15.7216 86.2969 15.7216C86.4787 15.7216 86.6747 15.733 86.8849 15.7557C87.0952 15.7784 87.2798 15.8097 87.4389 15.8494V19.071C87.2685 19.0199 87.0327 18.9744 86.7315 18.9347C86.4304 18.8949 86.1548 18.875 85.9048 18.875C85.3707 18.875 84.8935 18.9915 84.473 19.2244C84.0582 19.4517 83.7287 19.7699 83.4844 20.179C83.2457 20.5881 83.1264 21.0597 83.1264 21.5938V29H79.4957ZM96.9354 15.9091V18.6364H89.0518V15.9091H96.9354ZM90.8416 12.7727H94.4723V24.9773C94.4723 25.3125 94.5234 25.5739 94.6257 25.7614C94.728 25.9432 94.87 26.071 95.0518 26.1449C95.2393 26.2187 95.4553 26.2557 95.6996 26.2557C95.87 26.2557 96.0405 26.2415 96.2109 26.2131C96.3814 26.179 96.5121 26.1534 96.603 26.1364L97.174 28.8381C96.9922 28.8949 96.7365 28.9602 96.407 29.0341C96.0774 29.1136 95.6768 29.1619 95.2053 29.179C94.3303 29.2131 93.5632 29.0966 92.9041 28.8295C92.2507 28.5625 91.7422 28.1477 91.3786 27.5852C91.0149 27.0227 90.8359 26.3125 90.8416 25.4545V12.7727ZM103.033 29.2472C102.198 29.2472 101.454 29.1023 100.8 28.8125C100.147 28.517 99.63 28.0824 99.2493 27.5085C98.8743 26.929 98.6868 26.2074 98.6868 25.3438C98.6868 24.6165 98.8203 24.0057 99.0874 23.5114C99.3544 23.017 99.718 22.6193 100.178 22.3182C100.638 22.017 101.161 21.7898 101.746 21.6364C102.337 21.483 102.957 21.375 103.604 21.3125C104.366 21.233 104.979 21.1591 105.445 21.0909C105.911 21.017 106.249 20.9091 106.46 20.767C106.67 20.625 106.775 20.4148 106.775 20.1364V20.0852C106.775 19.5455 106.604 19.1278 106.263 18.8324C105.928 18.5369 105.451 18.3892 104.832 18.3892C104.178 18.3892 103.658 18.5341 103.272 18.8239C102.886 19.108 102.63 19.4659 102.505 19.8977L99.147 19.625C99.3175 18.8295 99.6527 18.142 100.153 17.5625C100.653 16.9773 101.298 16.5284 102.087 16.2159C102.883 15.8977 103.803 15.7386 104.849 15.7386C105.576 15.7386 106.272 15.8239 106.937 15.9943C107.607 16.1648 108.201 16.429 108.718 16.7869C109.241 17.1449 109.653 17.6051 109.954 18.1676C110.255 18.7244 110.406 19.392 110.406 20.1705V29H106.962V27.1847H106.86C106.65 27.5938 106.369 27.9545 106.016 28.267C105.664 28.5739 105.241 28.8153 104.746 28.9915C104.252 29.1619 103.681 29.2472 103.033 29.2472ZM104.073 26.7415C104.607 26.7415 105.079 26.6364 105.488 26.4261C105.897 26.2102 106.218 25.9205 106.451 25.5568C106.684 25.1932 106.8 24.7812 106.8 24.321V22.9318C106.687 23.0057 106.531 23.0739 106.332 23.1364C106.138 23.1932 105.92 23.2472 105.675 23.2983C105.431 23.3437 105.187 23.3864 104.942 23.4261C104.698 23.4602 104.477 23.4915 104.278 23.5199C103.852 23.5824 103.479 23.6818 103.161 23.8182C102.843 23.9545 102.596 24.1392 102.42 24.3722C102.244 24.5994 102.156 24.8835 102.156 25.2244C102.156 25.7188 102.335 26.0966 102.692 26.358C103.056 26.6136 103.516 26.7415 104.073 26.7415ZM116.853 11.5455V29H113.222V11.5455H116.853ZM130.14 29.2131C129.146 29.2131 128.245 28.9574 127.438 28.446C126.637 27.929 126.001 27.1705 125.529 26.1705C125.063 25.1648 124.83 23.9318 124.83 22.4716C124.83 20.9716 125.072 19.7244 125.555 18.7301C126.038 17.7301 126.68 16.983 127.481 16.4886C128.288 15.9886 129.171 15.7386 130.131 15.7386C130.864 15.7386 131.475 15.8636 131.964 16.1136C132.458 16.358 132.856 16.6648 133.157 17.0341C133.464 17.3977 133.697 17.7557 133.856 18.108H133.967V11.5455H137.589V29H134.009V26.9034H133.856C133.685 27.267 133.444 27.6278 133.131 27.9858C132.825 28.3381 132.424 28.6307 131.93 28.8636C131.441 29.0966 130.844 29.2131 130.14 29.2131ZM131.29 26.3239C131.876 26.3239 132.37 26.1648 132.773 25.8466C133.183 25.5227 133.495 25.071 133.711 24.4915C133.933 23.9119 134.043 23.233 134.043 22.4545C134.043 21.6761 133.935 21 133.719 20.4261C133.504 19.8523 133.191 19.4091 132.782 19.0966C132.373 18.7841 131.876 18.6278 131.29 18.6278C130.694 18.6278 130.191 18.7898 129.782 19.1136C129.373 19.4375 129.063 19.8864 128.853 20.4602C128.643 21.0341 128.538 21.6989 128.538 22.4545C128.538 23.2159 128.643 23.8892 128.853 24.4744C129.069 25.054 129.379 25.5085 129.782 25.8381C130.191 26.1619 130.694 26.3239 131.29 26.3239ZM146.489 29.2557C145.165 29.2557 144.02 28.9744 143.054 28.4119C142.094 27.8437 141.352 27.054 140.83 26.0426C140.307 25.0256 140.045 23.8466 140.045 22.5057C140.045 21.1534 140.307 19.9716 140.83 18.9602C141.352 17.9432 142.094 17.1534 143.054 16.5909C144.02 16.0227 145.165 15.7386 146.489 15.7386C147.812 15.7386 148.955 16.0227 149.915 16.5909C150.881 17.1534 151.625 17.9432 152.148 18.9602C152.67 19.9716 152.932 21.1534 152.932 22.5057C152.932 23.8466 152.67 25.0256 152.148 26.0426C151.625 27.054 150.881 27.8437 149.915 28.4119C148.955 28.9744 147.812 29.2557 146.489 29.2557ZM146.506 26.4432C147.108 26.4432 147.611 26.2727 148.014 25.9318C148.418 25.5852 148.722 25.1136 148.926 24.517C149.136 23.9205 149.241 23.2415 149.241 22.4801C149.241 21.7188 149.136 21.0398 148.926 20.4432C148.722 19.8466 148.418 19.375 148.014 19.0284C147.611 18.6818 147.108 18.5085 146.506 18.5085C145.898 18.5085 145.386 18.6818 144.972 19.0284C144.563 19.375 144.253 19.8466 144.043 20.4432C143.838 21.0398 143.736 21.7188 143.736 22.4801C143.736 23.2415 143.838 23.9205 144.043 24.517C144.253 25.1136 144.563 25.5852 144.972 25.9318C145.386 26.2727 145.898 26.4432 146.506 26.4432ZM160.915 29V11.5455H167.904C169.188 11.5455 170.259 11.7358 171.117 12.1165C171.975 12.4972 172.62 13.0256 173.052 13.7017C173.484 14.3722 173.7 15.1449 173.7 16.0199C173.7 16.7017 173.563 17.3011 173.29 17.8182C173.018 18.3295 172.643 18.75 172.165 19.0795C171.694 19.4034 171.154 19.6335 170.546 19.7699V19.9403C171.211 19.9687 171.833 20.1562 172.413 20.5028C172.998 20.8494 173.472 21.3352 173.836 21.9602C174.2 22.5795 174.381 23.3182 174.381 24.1761C174.381 25.1023 174.151 25.929 173.691 26.6562C173.237 27.3778 172.563 27.9489 171.671 28.3693C170.779 28.7898 169.68 29 168.373 29H160.915ZM164.606 25.983H167.614C168.643 25.983 169.393 25.7869 169.864 25.3949C170.336 24.9972 170.572 24.4687 170.572 23.8097C170.572 23.3267 170.455 22.9006 170.222 22.5312C169.989 22.1619 169.657 21.8722 169.225 21.6619C168.799 21.4517 168.29 21.3466 167.7 21.3466H164.606V25.983ZM164.606 18.8494H167.342C167.847 18.8494 168.296 18.7614 168.688 18.5852C169.086 18.4034 169.398 18.1477 169.626 17.8182C169.859 17.4886 169.975 17.0938 169.975 16.6335C169.975 16.0028 169.751 15.4943 169.302 15.108C168.859 14.7216 168.228 14.5284 167.41 14.5284H164.606V18.8494ZM182.68 29.2557C181.334 29.2557 180.175 28.983 179.203 28.4375C178.237 27.8864 177.493 27.108 176.97 26.1023C176.447 25.0909 176.186 23.8949 176.186 22.5142C176.186 21.1676 176.447 19.9858 176.97 18.9688C177.493 17.9517 178.229 17.1591 179.178 16.5909C180.132 16.0227 181.251 15.7386 182.536 15.7386C183.399 15.7386 184.203 15.8778 184.947 16.1562C185.697 16.429 186.351 16.8409 186.908 17.392C187.47 17.9432 187.908 18.6364 188.22 19.4716C188.533 20.3011 188.689 21.2727 188.689 22.3864V23.3835H177.635V21.1335H185.271C185.271 20.6108 185.158 20.1477 184.93 19.7443C184.703 19.3409 184.388 19.0256 183.984 18.7983C183.587 18.5653 183.124 18.4489 182.595 18.4489C182.044 18.4489 181.555 18.5767 181.129 18.8324C180.709 19.0824 180.379 19.4205 180.141 19.8466C179.902 20.267 179.78 20.7358 179.774 21.2528V23.392C179.774 24.0398 179.893 24.5994 180.132 25.071C180.376 25.5426 180.72 25.9062 181.163 26.1619C181.607 26.4176 182.132 26.5455 182.74 26.5455C183.143 26.5455 183.513 26.4886 183.848 26.375C184.183 26.2614 184.47 26.0909 184.709 25.8636C184.947 25.6364 185.129 25.358 185.254 25.0284L188.612 25.25C188.442 26.0568 188.092 26.7614 187.564 27.3636C187.041 27.9602 186.365 28.4261 185.536 28.7614C184.712 29.0909 183.76 29.2557 182.68 29.2557ZM194.689 21.4318V29H191.058V15.9091H194.518V18.2188H194.672C194.962 17.4574 195.447 16.8551 196.129 16.4119C196.811 15.9631 197.638 15.7386 198.609 15.7386C199.518 15.7386 200.311 15.9375 200.987 16.3352C201.663 16.733 202.189 17.3011 202.564 18.0398C202.939 18.7727 203.126 19.6477 203.126 20.6648V29H199.496V21.3125C199.501 20.5114 199.297 19.8864 198.882 19.4375C198.467 18.983 197.896 18.7557 197.169 18.7557C196.68 18.7557 196.249 18.8608 195.874 19.071C195.504 19.2812 195.214 19.5881 195.004 19.9915C194.8 20.3892 194.695 20.8693 194.689 21.4318ZM211.954 29.2557C210.607 29.2557 209.448 28.983 208.477 28.4375C207.511 27.8864 206.766 27.108 206.244 26.1023C205.721 25.0909 205.46 23.8949 205.46 22.5142C205.46 21.1676 205.721 19.9858 206.244 18.9688C206.766 17.9517 207.502 17.1591 208.451 16.5909C209.406 16.0227 210.525 15.7386 211.809 15.7386C212.673 15.7386 213.477 15.8778 214.221 16.1562C214.971 16.429 215.624 16.8409 216.181 17.392C216.744 17.9432 217.181 18.6364 217.494 19.4716C217.806 20.3011 217.962 21.2727 217.962 22.3864V23.3835H206.908V21.1335H214.545C214.545 20.6108 214.431 20.1477 214.204 19.7443C213.977 19.3409 213.661 19.0256 213.258 18.7983C212.86 18.5653 212.397 18.4489 211.869 18.4489C211.317 18.4489 210.829 18.5767 210.403 18.8324C209.982 19.0824 209.653 19.4205 209.414 19.8466C209.175 20.267 209.053 20.7358 209.048 21.2528V23.392C209.048 24.0398 209.167 24.5994 209.406 25.071C209.65 25.5426 209.994 25.9062 210.437 26.1619C210.88 26.4176 211.406 26.5455 212.013 26.5455C212.417 26.5455 212.786 26.4886 213.121 26.375C213.457 26.2614 213.744 26.0909 213.982 25.8636C214.221 25.6364 214.403 25.358 214.528 25.0284L217.886 25.25C217.715 26.0568 217.366 26.7614 216.837 27.3636C216.315 27.9602 215.638 28.4261 214.809 28.7614C213.985 29.0909 213.033 29.2557 211.954 29.2557ZM227.371 15.9091V18.6364H219.292V15.9091H227.371ZM221.141 29V14.9631C221.141 14.0142 221.326 13.2273 221.695 12.6023C222.07 11.9773 222.582 11.5085 223.229 11.196C223.877 10.8835 224.613 10.7273 225.437 10.7273C225.994 10.7273 226.502 10.7699 226.962 10.8551C227.428 10.9403 227.775 11.017 228.002 11.0852L227.354 13.8125C227.212 13.767 227.036 13.7244 226.826 13.6847C226.621 13.6449 226.411 13.625 226.195 13.625C225.661 13.625 225.289 13.75 225.079 14C224.869 14.2443 224.763 14.5881 224.763 15.0312V29H221.141ZM229.589 29V15.9091H233.22V29H229.589ZM231.413 14.2216C230.874 14.2216 230.411 14.0426 230.024 13.6847C229.643 13.321 229.453 12.8864 229.453 12.3807C229.453 11.8807 229.643 11.4517 230.024 11.0938C230.411 10.7301 230.874 10.5483 231.413 10.5483C231.953 10.5483 232.413 10.7301 232.794 11.0938C233.18 11.4517 233.374 11.8807 233.374 12.3807C233.374 12.8864 233.18 13.321 232.794 13.6847C232.413 14.0426 231.953 14.2216 231.413 14.2216ZM242.043 29.2557C240.702 29.2557 239.549 28.9716 238.583 28.4034C237.623 27.8295 236.884 27.0341 236.367 26.017C235.856 25 235.6 23.8295 235.6 22.5057C235.6 21.1648 235.859 19.9886 236.376 18.9773C236.898 17.9602 237.64 17.1676 238.6 16.5994C239.56 16.0256 240.702 15.7386 242.026 15.7386C243.168 15.7386 244.168 15.946 245.026 16.3608C245.884 16.7756 246.563 17.358 247.063 18.108C247.563 18.858 247.839 19.7386 247.89 20.75H244.464C244.367 20.0966 244.112 19.571 243.697 19.1733C243.288 18.7699 242.751 18.5682 242.086 18.5682C241.523 18.5682 241.032 18.7216 240.612 19.0284C240.197 19.3295 239.873 19.7699 239.64 20.3494C239.407 20.929 239.29 21.6307 239.29 22.4545C239.29 23.2898 239.404 24 239.631 24.5852C239.864 25.1705 240.191 25.6165 240.612 25.9233C241.032 26.2301 241.523 26.3835 242.086 26.3835C242.501 26.3835 242.873 26.2983 243.202 26.1278C243.538 25.9574 243.813 25.7102 244.029 25.3864C244.251 25.0568 244.396 24.6619 244.464 24.2017H247.89C247.833 25.2017 247.56 26.0824 247.072 26.8438C246.589 27.5994 245.921 28.1903 245.069 28.6165C244.217 29.0426 243.208 29.2557 242.043 29.2557ZM250.214 29V15.9091H253.845V29H250.214ZM252.038 14.2216C251.499 14.2216 251.036 14.0426 250.649 13.6847C250.268 13.321 250.078 12.8864 250.078 12.3807C250.078 11.8807 250.268 11.4517 250.649 11.0938C251.036 10.7301 251.499 10.5483 252.038 10.5483C252.578 10.5483 253.038 10.7301 253.419 11.0938C253.805 11.4517 253.999 11.8807 253.999 12.3807C253.999 12.8864 253.805 13.321 253.419 13.6847C253.038 14.0426 252.578 14.2216 252.038 14.2216ZM260.487 29.2472C259.651 29.2472 258.907 29.1023 258.254 28.8125C257.6 28.517 257.083 28.0824 256.702 27.5085C256.327 26.929 256.14 26.2074 256.14 25.3438C256.14 24.6165 256.273 24.0057 256.54 23.5114C256.808 23.017 257.171 22.6193 257.631 22.3182C258.092 22.017 258.614 21.7898 259.2 21.6364C259.79 21.483 260.41 21.375 261.058 21.3125C261.819 21.233 262.433 21.1591 262.898 21.0909C263.364 21.017 263.702 20.9091 263.913 20.767C264.123 20.625 264.228 20.4148 264.228 20.1364V20.0852C264.228 19.5455 264.058 19.1278 263.717 18.8324C263.381 18.5369 262.904 18.3892 262.285 18.3892C261.631 18.3892 261.112 18.5341 260.725 18.8239C260.339 19.108 260.083 19.4659 259.958 19.8977L256.6 19.625C256.771 18.8295 257.106 18.142 257.606 17.5625C258.106 16.9773 258.751 16.5284 259.54 16.2159C260.336 15.8977 261.256 15.7386 262.302 15.7386C263.029 15.7386 263.725 15.8239 264.39 15.9943C265.06 16.1648 265.654 16.429 266.171 16.7869C266.694 17.1449 267.106 17.6051 267.407 18.1676C267.708 18.7244 267.859 19.392 267.859 20.1705V29H264.415V27.1847H264.313C264.103 27.5938 263.822 27.9545 263.469 28.267C263.117 28.5739 262.694 28.8153 262.2 28.9915C261.705 29.1619 261.134 29.2472 260.487 29.2472ZM261.526 26.7415C262.06 26.7415 262.532 26.6364 262.941 26.4261C263.35 26.2102 263.671 25.9205 263.904 25.5568C264.137 25.1932 264.254 24.7812 264.254 24.321V22.9318C264.14 23.0057 263.984 23.0739 263.785 23.1364C263.592 23.1932 263.373 23.2472 263.129 23.2983C262.884 23.3437 262.64 23.3864 262.396 23.4261C262.151 23.4602 261.93 23.4915 261.731 23.5199C261.305 23.5824 260.933 23.6818 260.614 23.8182C260.296 23.9545 260.049 24.1392 259.873 24.3722C259.697 24.5994 259.609 24.8835 259.609 25.2244C259.609 25.7188 259.788 26.0966 260.146 26.358C260.509 26.6136 260.969 26.7415 261.526 26.7415ZM261.134 14.2216L262.941 10.3438H266.299L263.7 14.2216H261.134ZM270.675 29V15.9091H274.195V18.1932H274.332C274.57 17.3807 274.971 16.767 275.533 16.3523C276.096 15.9318 276.744 15.7216 277.477 15.7216C277.658 15.7216 277.854 15.733 278.065 15.7557C278.275 15.7784 278.46 15.8097 278.619 15.8494V19.071C278.448 19.0199 278.212 18.9744 277.911 18.9347C277.61 18.8949 277.335 18.875 277.085 18.875C276.55 18.875 276.073 18.9915 275.653 19.2244C275.238 19.4517 274.908 19.7699 274.664 20.179C274.425 20.5881 274.306 21.0597 274.306 21.5938V29H270.675ZM280.496 29V15.9091H284.126V29H280.496ZM282.32 14.2216C281.78 14.2216 281.317 14.0426 280.93 13.6847C280.55 13.321 280.359 12.8864 280.359 12.3807C280.359 11.8807 280.55 11.4517 280.93 11.0938C281.317 10.7301 281.78 10.5483 282.32 10.5483C282.859 10.5483 283.32 10.7301 283.7 11.0938C284.087 11.4517 284.28 11.8807 284.28 12.3807C284.28 12.8864 284.087 13.321 283.7 13.6847C283.32 14.0426 282.859 14.2216 282.32 14.2216ZM292.95 29.2557C291.626 29.2557 290.481 28.9744 289.515 28.4119C288.555 27.8437 287.813 27.054 287.29 26.0426C286.768 25.0256 286.506 23.8466 286.506 22.5057C286.506 21.1534 286.768 19.9716 287.29 18.9602C287.813 17.9432 288.555 17.1534 289.515 16.5909C290.481 16.0227 291.626 15.7386 292.95 15.7386C294.273 15.7386 295.415 16.0227 296.376 16.5909C297.342 17.1534 298.086 17.9432 298.609 18.9602C299.131 19.9716 299.393 21.1534 299.393 22.5057C299.393 23.8466 299.131 25.0256 298.609 26.0426C298.086 27.054 297.342 27.8437 296.376 28.4119C295.415 28.9744 294.273 29.2557 292.95 29.2557ZM292.967 26.4432C293.569 26.4432 294.072 26.2727 294.475 25.9318C294.879 25.5852 295.183 25.1136 295.387 24.517C295.597 23.9205 295.702 23.2415 295.702 22.4801C295.702 21.7188 295.597 21.0398 295.387 20.4432C295.183 19.8466 294.879 19.375 294.475 19.0284C294.072 18.6818 293.569 18.5085 292.967 18.5085C292.359 18.5085 291.847 18.6818 291.433 19.0284C291.023 19.375 290.714 19.8466 290.504 20.4432C290.299 21.0398 290.197 21.7188 290.197 22.4801C290.197 23.2415 290.299 23.9205 290.504 24.517C290.714 25.1136 291.023 25.5852 291.433 25.9318C291.847 26.2727 292.359 26.4432 292.967 26.4432Z" fill="white"/>
</svg>
